<svg xmlns="http://www.w3.org/2000/svg" width="1290" height="2796" viewBox="0 0 1290 2796">
  <defs>
    <linearGradient id="bg" x1="0" y1="0" x2="0" y2="1">
      <stop offset="0%" stop-color="#2c2374"/>
      <stop offset="45%" stop-color="#262165"/>
      <stop offset="78%" stop-color="#1d1b55"/>
      <stop offset="100%" stop-color="#151042"/>
    </linearGradient>
    <radialGradient id="glowTop" cx="50%" cy="5%" r="70%">
      <stop offset="0%" stop-color="#b7a2ff" stop-opacity="0.34"/>
      <stop offset="45%" stop-color="#8a74e0" stop-opacity="0.12"/>
      <stop offset="100%" stop-color="#000000" stop-opacity="0"/>
    </radialGradient>
    <radialGradient id="glowLeft" cx="10%" cy="25%" r="42%">
      <stop offset="0%" stop-color="#7e95ff" stop-opacity="0.28"/>
      <stop offset="100%" stop-color="#000000" stop-opacity="0"/>
    </radialGradient>
    <radialGradient id="horizon" cx="50%" cy="110%" r="55%">
      <stop offset="0%" stop-color="#6a5ad9" stop-opacity="0.35"/>
      <stop offset="100%" stop-color="#000000" stop-opacity="0"/>
    </radialGradient>
  </defs>

  <rect width="100%" height="100%" fill="url(#bg)"/>
  <rect width="100%" height="100%" fill="url(#glowTop)"/>
  <rect width="100%" height="100%" fill="url(#glowLeft)"/>
  <rect width="100%" height="100%" fill="url(#horizon)"/>
  <circle cx="824.86" cy="50.35" r="1.04" fill="#ffffff" opacity="0.430"/>
  <circle cx="950.05" cy="1362.28" r="2.03" fill="#ffffff" opacity="0.338"/>
  <circle cx="544.28" cy="59.99" r="0.95" fill="#ffffff" opacity="0.619"/>
  <circle cx="34.23" cy="400.28" r="1.64" fill="#ffffff" opacity="0.645"/>
  <circle cx="284.37" cy="1186.26" r="1.90" fill="#ffffff" opacity="0.284"/>
  <circle cx="1039.51" cy="1405.44" r="1.14" fill="#ffffff" opacity="0.384"/>
  <circle cx="1234.80" cy="677.61" r="0.75" fill="#ffffff" opacity="0.345"/>
  <circle cx="1093.27" cy="1215.37" r="1.89" fill="#ffffff" opacity="0.769"/>
  <circle cx="691.73" cy="1959.00" r="1.21" fill="#ffffff" opacity="0.650"/>
  <circle cx="1069.93" cy="1245.15" r="1.98" fill="#ffffff" opacity="0.667"/>
  <circle cx="908.90" cy="92.25" r="0.96" fill="#ffffff" opacity="0.474"/>
  <circle cx="102.93" cy="468.64" r="0.76" fill="#ffffff" opacity="0.466"/>
  <circle cx="820.03" cy="734.45" r="1.19" fill="#ffffff" opacity="0.420"/>
  <circle cx="344.40" cy="1885.60" r="1.64" fill="#ffffff" opacity="0.688"/>
  <circle cx="220.77" cy="1467.82" r="0.86" fill="#ffffff" opacity="0.534"/>
  <circle cx="1276.49" cy="1288.40" r="1.49" fill="#ffffff" opacity="0.739"/>
  <circle cx="1087.28" cy="1562.18" r="0.97" fill="#ffffff" opacity="0.302"/>
  <circle cx="406.93" cy="538.99" r="0.94" fill="#ffffff" opacity="0.912"/>
  <circle cx="1130.51" cy="633.48" r="1.65" fill="#ffffff" opacity="0.545"/>
  <circle cx="1179.77" cy="923.72" r="1.02" fill="#ffffff" opacity="0.445"/>
  <circle cx="724.16" cy="528.93" r="1.54" fill="#ffffff" opacity="0.882"/>
  <circle cx="515.23" cy="441.52" r="2.20" fill="#ffffff" opacity="0.621"/>
  <circle cx="117.27" cy="94.85" r="0.78" fill="#ffffff" opacity="0.700"/>
  <circle cx="1021.78" cy="849.86" r="0.70" fill="#ffffff" opacity="0.536"/>
  <circle cx="1285.00" cy="1065.17" r="2.15" fill="#ffffff" opacity="0.857"/>
  <circle cx="14.81" cy="1450.90" r="1.69" fill="#ffffff" opacity="0.640"/>
  <circle cx="344.20" cy="1290.33" r="0.78" fill="#ffffff" opacity="0.571"/>
  <circle cx="585.30" cy="1920.15" r="2.00" fill="#ffffff" opacity="0.456"/>
  <circle cx="645.76" cy="359.65" r="2.06" fill="#ffffff" opacity="0.863"/>
  <circle cx="384.99" cy="1286.28" r="1.57" fill="#ffffff" opacity="0.382"/>
  <circle cx="983.64" cy="1085.83" r="1.85" fill="#ffffff" opacity="0.635"/>
  <circle cx="0.74" cy="652.57" r="0.63" fill="#ffffff" opacity="0.902"/>
  <circle cx="1133.55" cy="1674.24" r="1.09" fill="#ffffff" opacity="0.319"/>
  <circle cx="1132.63" cy="1906.32" r="0.74" fill="#ffffff" opacity="0.606"/>
  <circle cx="89.28" cy="1531.18" r="1.83" fill="#ffffff" opacity="0.366"/>
  <circle cx="613.11" cy="1106.82" r="1.02" fill="#ffffff" opacity="0.865"/>
  <circle cx="545.85" cy="426.38" r="1.46" fill="#ffffff" opacity="0.769"/>
  <circle cx="259.48" cy="627.52" r="2.19" fill="#ffffff" opacity="0.715"/>
  <circle cx="565.15" cy="1041.94" r="0.79" fill="#ffffff" opacity="0.431"/>
  <circle cx="436.13" cy="1184.34" r="0.97" fill="#ffffff" opacity="0.428"/>
  <circle cx="91.58" cy="1270.49" r="0.97" fill="#ffffff" opacity="0.887"/>
  <circle cx="1108.93" cy="142.64" r="0.98" fill="#ffffff" opacity="0.728"/>
  <circle cx="276.37" cy="266.36" r="2.10" fill="#ffffff" opacity="0.663"/>
  <circle cx="609.75" cy="1579.53" r="1.89" fill="#ffffff" opacity="0.408"/>
  <circle cx="125.04" cy="867.76" r="1.28" fill="#ffffff" opacity="0.593"/>
  <circle cx="940.51" cy="1355.56" r="2.17" fill="#ffffff" opacity="0.346"/>
  <circle cx="519.38" cy="683.06" r="1.98" fill="#ffffff" opacity="0.447"/>
  <circle cx="245.37" cy="903.11" r="1.28" fill="#ffffff" opacity="0.467"/>
  <circle cx="322.25" cy="1858.64" r="1.31" fill="#ffffff" opacity="0.857"/>
  <circle cx="709.92" cy="101.84" r="2.20" fill="#ffffff" opacity="0.840"/>
  <circle cx="1250.01" cy="1864.89" r="1.96" fill="#ffffff" opacity="0.391"/>
  <circle cx="626.48" cy="430.30" r="1.24" fill="#ffffff" opacity="0.319"/>
  <circle cx="488.88" cy="1983.54" r="1.02" fill="#ffffff" opacity="0.805"/>
  <circle cx="586.96" cy="851.56" r="2.13" fill="#ffffff" opacity="0.947"/>
  <circle cx="716.94" cy="1446.24" r="0.85" fill="#ffffff" opacity="0.479"/>
  <circle cx="1249.64" cy="1165.96" r="1.47" fill="#ffffff" opacity="0.781"/>
  <circle cx="73.74" cy="1176.02" r="1.40" fill="#ffffff" opacity="0.851"/>
  <circle cx="203.09" cy="1934.16" r="0.73" fill="#ffffff" opacity="0.405"/>
  <circle cx="767.60" cy="1359.28" r="0.98" fill="#ffffff" opacity="0.360"/>
  <circle cx="1148.47" cy="495.66" r="1.55" fill="#ffffff" opacity="0.695"/>
  <circle cx="540.80" cy="1175.00" r="1.44" fill="#ffffff" opacity="0.906"/>
  <circle cx="263.49" cy="1441.78" r="0.98" fill="#ffffff" opacity="0.545"/>
  <circle cx="866.48" cy="603.93" r="1.11" fill="#ffffff" opacity="0.784"/>
  <circle cx="93.58" cy="922.58" r="2.20" fill="#ffffff" opacity="0.947"/>
  <circle cx="94.51" cy="429.11" r="1.02" fill="#ffffff" opacity="0.905"/>
  <circle cx="1136.31" cy="1770.08" r="1.19" fill="#ffffff" opacity="0.386"/>
  <circle cx="1075.53" cy="1416.31" r="1.58" fill="#ffffff" opacity="0.941"/>
  <circle cx="843.63" cy="15.75" r="1.91" fill="#ffffff" opacity="0.481"/>
  <circle cx="855.77" cy="1890.18" r="0.81" fill="#ffffff" opacity="0.357"/>
  <circle cx="138.08" cy="1113.71" r="1.04" fill="#ffffff" opacity="0.685"/>
  <circle cx="925.72" cy="409.87" r="1.61" fill="#ffffff" opacity="0.457"/>
  <circle cx="630.21" cy="1822.55" r="1.95" fill="#ffffff" opacity="0.342"/>
  <circle cx="546.41" cy="556.99" r="0.61" fill="#ffffff" opacity="0.797"/>
  <circle cx="821.88" cy="527.35" r="1.79" fill="#ffffff" opacity="0.650"/>
  <circle cx="551.72" cy="19.47" r="0.72" fill="#ffffff" opacity="0.872"/>
  <circle cx="1166.07" cy="1098.34" r="1.94" fill="#ffffff" opacity="0.670"/>
  <circle cx="191.04" cy="256.56" r="1.09" fill="#ffffff" opacity="0.882"/>
  <circle cx="1027.00" cy="1732.70" r="2.04" fill="#ffffff" opacity="0.421"/>
  <circle cx="321.89" cy="206.94" r="1.85" fill="#ffffff" opacity="0.872"/>
  <circle cx="524.23" cy="1249.47" r="0.85" fill="#ffffff" opacity="0.903"/>
  <circle cx="1115.34" cy="1965.22" r="1.90" fill="#ffffff" opacity="0.871"/>
  <circle cx="31.97" cy="1482.79" r="1.13" fill="#ffffff" opacity="0.904"/>
  <circle cx="1034.88" cy="1739.46" r="1.90" fill="#ffffff" opacity="0.459"/>
  <circle cx="1015.71" cy="217.61" r="2.00" fill="#ffffff" opacity="0.855"/>
  <circle cx="286.94" cy="1643.89" r="1.34" fill="#ffffff" opacity="0.484"/>
  <circle cx="1026.00" cy="458.18" r="0.64" fill="#ffffff" opacity="0.409"/>
  <circle cx="423.46" cy="1740.05" r="2.15" fill="#ffffff" opacity="0.467"/>
  <circle cx="827.51" cy="804.60" r="2.17" fill="#ffffff" opacity="0.639"/>
  <circle cx="1211.62" cy="232.20" r="2.15" fill="#ffffff" opacity="0.400"/>
  <circle cx="1241.67" cy="534.42" r="0.77" fill="#ffffff" opacity="0.571"/>
  <circle cx="939.82" cy="631.47" r="1.57" fill="#ffffff" opacity="0.623"/>
  <circle cx="496.90" cy="1160.74" r="1.01" fill="#ffffff" opacity="0.755"/>
  <circle cx="2.18" cy="1863.29" r="1.46" fill="#ffffff" opacity="0.762"/>
  <circle cx="957.12" cy="1350.06" r="1.18" fill="#ffffff" opacity="0.327"/>
  <circle cx="856.87" cy="664.73" r="1.10" fill="#ffffff" opacity="0.848"/>
  <circle cx="928.48" cy="604.58" r="1.09" fill="#ffffff" opacity="0.554"/>
  <circle cx="519.10" cy="595.19" r="0.80" fill="#ffffff" opacity="0.562"/>
  <circle cx="1213.07" cy="1363.52" r="2.04" fill="#ffffff" opacity="0.692"/>
  <circle cx="388.23" cy="1103.06" r="0.60" fill="#ffffff" opacity="0.472"/>
  <circle cx="554.56" cy="1167.58" r="1.65" fill="#ffffff" opacity="0.592"/>
  <circle cx="570.39" cy="430.21" r="1.36" fill="#ffffff" opacity="0.884"/>
  <circle cx="1026.87" cy="341.61" r="0.74" fill="#ffffff" opacity="0.625"/>
  <circle cx="816.49" cy="674.77" r="1.91" fill="#ffffff" opacity="0.783"/>
  <circle cx="867.91" cy="452.23" r="0.92" fill="#ffffff" opacity="0.296"/>
  <circle cx="315.85" cy="956.51" r="1.96" fill="#ffffff" opacity="0.329"/>
  <circle cx="534.63" cy="1267.79" r="0.91" fill="#ffffff" opacity="0.747"/>
  <circle cx="637.75" cy="491.17" r="1.65" fill="#ffffff" opacity="0.284"/>
  <circle cx="968.74" cy="1550.20" r="0.77" fill="#ffffff" opacity="0.565"/>
  <circle cx="226.89" cy="1928.50" r="1.43" fill="#ffffff" opacity="0.314"/>
  <circle cx="321.47" cy="1707.80" r="1.33" fill="#ffffff" opacity="0.817"/>
  <circle cx="861.18" cy="1988.75" r="1.55" fill="#ffffff" opacity="0.917"/>
  <circle cx="1149.94" cy="1233.34" r="1.75" fill="#ffffff" opacity="0.618"/>
  <circle cx="1071.43" cy="1102.93" r="2.04" fill="#ffffff" opacity="0.778"/>
  <circle cx="612.33" cy="521.78" r="1.00" fill="#ffffff" opacity="0.707"/>
  <circle cx="987.90" cy="1049.44" r="1.60" fill="#ffffff" opacity="0.464"/>
  <circle cx="99.95" cy="575.21" r="1.03" fill="#ffffff" opacity="0.494"/>
  <circle cx="696.80" cy="278.56" r="0.97" fill="#ffffff" opacity="0.745"/>
  <circle cx="911.28" cy="129.30" r="1.25" fill="#ffffff" opacity="0.644"/>
  <circle cx="536.35" cy="416.38" r="1.27" fill="#ffffff" opacity="0.886"/>
  <circle cx="753.46" cy="1400.17" r="1.97" fill="#ffffff" opacity="0.793"/>
  <circle cx="490.69" cy="11.87" r="1.16" fill="#ffffff" opacity="0.785"/>
  <circle cx="1100.95" cy="1919.37" r="1.27" fill="#ffffff" opacity="0.781"/>
  <circle cx="704.51" cy="1214.42" r="0.95" fill="#ffffff" opacity="0.427"/>
  <circle cx="562.23" cy="58.43" r="1.14" fill="#ffffff" opacity="0.735"/>
  <circle cx="521.57" cy="332.25" r="1.35" fill="#ffffff" opacity="0.366"/>
  <circle cx="802.71" cy="54.29" r="1.23" fill="#ffffff" opacity="0.658"/>
  <circle cx="34.96" cy="1293.93" r="0.82" fill="#ffffff" opacity="0.589"/>
  <circle cx="64.87" cy="763.18" r="0.94" fill="#ffffff" opacity="0.499"/>
  <circle cx="981.99" cy="763.23" r="1.80" fill="#ffffff" opacity="0.837"/>
  <circle cx="325.43" cy="164.89" r="0.63" fill="#ffffff" opacity="0.641"/>
  <circle cx="1289.88" cy="704.51" r="1.64" fill="#ffffff" opacity="0.803"/>
  <circle cx="840.76" cy="1518.36" r="2.12" fill="#ffffff" opacity="0.414"/>
  <circle cx="26.29" cy="306.76" r="0.80" fill="#ffffff" opacity="0.729"/>
  <circle cx="727.52" cy="438.79" r="1.72" fill="#ffffff" opacity="0.794"/>
  <circle cx="216.45" cy="1222.46" r="1.80" fill="#ffffff" opacity="0.357"/>
  <circle cx="1056.90" cy="1942.10" r="0.77" fill="#ffffff" opacity="0.297"/>
  <circle cx="402.42" cy="1363.58" r="2.13" fill="#ffffff" opacity="0.546"/>
  <circle cx="922.37" cy="152.99" r="1.70" fill="#ffffff" opacity="0.700"/>
  <circle cx="131.45" cy="1555.10" r="1.96" fill="#ffffff" opacity="0.682"/>
  <circle cx="156.16" cy="1980.60" r="1.85" fill="#ffffff" opacity="0.513"/>
  <circle cx="552.61" cy="746.00" r="1.41" fill="#ffffff" opacity="0.509"/>
  <circle cx="1095.95" cy="1655.45" r="0.77" fill="#ffffff" opacity="0.924"/>
  <circle cx="819.90" cy="1668.29" r="1.73" fill="#ffffff" opacity="0.572"/>
  <circle cx="946.60" cy="1943.61" r="1.03" fill="#ffffff" opacity="0.821"/>
  <circle cx="694.24" cy="973.34" r="1.30" fill="#ffffff" opacity="0.770"/>
  <circle cx="346.23" cy="1714.60" r="1.93" fill="#ffffff" opacity="0.338"/>
  <circle cx="1137.30" cy="490.93" r="1.34" fill="#ffffff" opacity="0.689"/>
  <circle cx="488.90" cy="57.78" r="1.96" fill="#ffffff" opacity="0.402"/>
  <circle cx="273.63" cy="1606.13" r="1.14" fill="#ffffff" opacity="0.870"/>
  <circle cx="904.53" cy="556.16" r="0.62" fill="#ffffff" opacity="0.915"/>
  <circle cx="110.44" cy="1449.60" r="1.38" fill="#ffffff" opacity="0.788"/>
  <circle cx="890.89" cy="1300.28" r="1.39" fill="#ffffff" opacity="0.811"/>
  <circle cx="120.04" cy="446.10" r="1.71" fill="#ffffff" opacity="0.485"/>
  <circle cx="750.21" cy="952.73" r="1.45" fill="#ffffff" opacity="0.565"/>
  <circle cx="962.26" cy="665.92" r="1.72" fill="#ffffff" opacity="0.462"/>
  <circle cx="324.31" cy="242.89" r="0.91" fill="#ffffff" opacity="0.360"/>
  <circle cx="691.26" cy="1534.38" r="0.90" fill="#ffffff" opacity="0.425"/>
  <circle cx="624.62" cy="1458.68" r="2.16" fill="#ffffff" opacity="0.632"/>
  <circle cx="365.07" cy="202.37" r="0.91" fill="#ffffff" opacity="0.432"/>
  <circle cx="231.48" cy="28.48" r="1.45" fill="#ffffff" opacity="0.464"/>
  <circle cx="1256.84" cy="1113.98" r="1.72" fill="#ffffff" opacity="0.365"/>
  <circle cx="1120.31" cy="988.20" r="2.00" fill="#ffffff" opacity="0.665"/>
  <circle cx="605.52" cy="886.72" r="0.89" fill="#ffffff" opacity="0.314"/>
  <circle cx="1213.97" cy="961.73" r="1.92" fill="#ffffff" opacity="0.548"/>
  <circle cx="95.57" cy="1267.15" r="0.69" fill="#ffffff" opacity="0.380"/>
  <circle cx="726.06" cy="611.66" r="2.19" fill="#ffffff" opacity="0.359"/>
  <circle cx="986.13" cy="1220.59" r="1.87" fill="#ffffff" opacity="0.431"/>
  <circle cx="674.12" cy="906.94" r="1.31" fill="#ffffff" opacity="0.856"/>
  <circle cx="1277.14" cy="614.77" r="1.59" fill="#ffffff" opacity="0.688"/>
  <circle cx="954.72" cy="1907.61" r="0.93" fill="#ffffff" opacity="0.421"/>
  <circle cx="851.95" cy="316.17" r="0.88" fill="#ffffff" opacity="0.330"/>
  <circle cx="3.45" cy="906.92" r="1.55" fill="#ffffff" opacity="0.475"/>
  <circle cx="298.60" cy="1423.19" r="1.72" fill="#ffffff" opacity="0.584"/>
  <circle cx="886.73" cy="1859.94" r="1.86" fill="#ffffff" opacity="0.699"/>
  <circle cx="852.93" cy="1879.59" r="1.28" fill="#ffffff" opacity="0.645"/>
  <circle cx="835.45" cy="1828.74" r="1.92" fill="#ffffff" opacity="0.328"/>
  <circle cx="214.04" cy="619.26" r="1.80" fill="#ffffff" opacity="0.661"/>
  <circle cx="372.31" cy="250.34" r="1.70" fill="#ffffff" opacity="0.749"/>
  <circle cx="1216.05" cy="1007.51" r="1.39" fill="#ffffff" opacity="0.334"/>
  <circle cx="51.42" cy="869.73" r="1.12" fill="#ffffff" opacity="0.448"/>
  <circle cx="117.81" cy="1936.44" r="1.94" fill="#ffffff" opacity="0.665"/>
  <circle cx="1226.51" cy="2012.26" r="1.68" fill="#ffffff" opacity="0.461"/>
  <circle cx="51.90" cy="1522.46" r="1.35" fill="#ffffff" opacity="0.717"/>
  <circle cx="1181.73" cy="365.36" r="1.54" fill="#ffffff" opacity="0.705"/>
  <circle cx="634.33" cy="183.68" r="1.16" fill="#ffffff" opacity="0.503"/>
  <circle cx="864.47" cy="1726.72" r="1.13" fill="#ffffff" opacity="0.745"/>
  <circle cx="371.80" cy="1902.79" r="1.90" fill="#ffffff" opacity="0.649"/>
  <circle cx="586.73" cy="633.16" r="1.12" fill="#ffffff" opacity="0.930"/>
  <circle cx="521.39" cy="1035.94" r="2.18" fill="#ffffff" opacity="0.721"/>
  <circle cx="699.95" cy="831.92" r="0.90" fill="#ffffff" opacity="0.522"/>
  <circle cx="975.81" cy="1259.02" r="1.82" fill="#ffffff" opacity="0.416"/>
  <circle cx="708.49" cy="1867.52" r="1.30" fill="#ffffff" opacity="0.748"/>
  <circle cx="156.64" cy="1959.06" r="1.57" fill="#ffffff" opacity="0.440"/>
  <circle cx="204.31" cy="1108.91" r="1.48" fill="#ffffff" opacity="0.342"/>
  <circle cx="1280.01" cy="1837.84" r="1.34" fill="#ffffff" opacity="0.359"/>
  <circle cx="1073.46" cy="1003.29" r="1.75" fill="#ffffff" opacity="0.621"/>
  <circle cx="352.72" cy="1680.40" r="2.17" fill="#ffffff" opacity="0.443"/>
  <circle cx="711.13" cy="772.20" r="2.07" fill="#ffffff" opacity="0.621"/>
  <circle cx="1134.33" cy="1739.39" r="1.04" fill="#ffffff" opacity="0.809"/>
  <circle cx="535.28" cy="1880.75" r="1.41" fill="#ffffff" opacity="0.830"/>
  <circle cx="364.86" cy="601.03" r="1.54" fill="#ffffff" opacity="0.949"/>
  <circle cx="631.64" cy="299.14" r="1.46" fill="#ffffff" opacity="0.511"/>
  <circle cx="711.97" cy="1093.99" r="1.33" fill="#ffffff" opacity="0.496"/>
  <circle cx="243.36" cy="1404.15" r="1.51" fill="#ffffff" opacity="0.436"/>
  <circle cx="1000.45" cy="87.87" r="1.79" fill="#ffffff" opacity="0.753"/>
  <circle cx="1046.72" cy="777.22" r="1.66" fill="#ffffff" opacity="0.830"/>
  <circle cx="1265.26" cy="997.16" r="0.66" fill="#ffffff" opacity="0.617"/>
  <circle cx="761.33" cy="1750.81" r="2.00" fill="#ffffff" opacity="0.575"/>
  <circle cx="678.48" cy="919.85" r="1.76" fill="#ffffff" opacity="0.555"/>
  <circle cx="844.67" cy="310.75" r="1.35" fill="#ffffff" opacity="0.929"/>
  <circle cx="436.74" cy="1394.50" r="1.64" fill="#ffffff" opacity="0.851"/>
  <circle cx="1099.52" cy="1729.96" r="1.21" fill="#ffffff" opacity="0.492"/>
  <circle cx="927.15" cy="1528.77" r="2.00" fill="#ffffff" opacity="0.304"/>
  <circle cx="88.26" cy="1270.60" r="2.07" fill="#ffffff" opacity="0.948"/>
  <circle cx="963.33" cy="873.64" r="0.76" fill="#ffffff" opacity="0.705"/>
  <circle cx="1125.63" cy="893.18" r="1.71" fill="#ffffff" opacity="0.885"/>
  <circle cx="59.33" cy="1602.73" r="1.07" fill="#ffffff" opacity="0.531"/>
  <circle cx="187.79" cy="1069.30" r="1.51" fill="#ffffff" opacity="0.811"/>
  <circle cx="219.28" cy="158.97" r="1.99" fill="#ffffff" opacity="0.695"/>
  <circle cx="310.67" cy="1837.63" r="0.83" fill="#ffffff" opacity="0.589"/>
  <g opacity="0.882">
    <circle cx="327.63" cy="485.45" r="1.82" fill="#ffffff"/>
    <circle cx="327.63" cy="485.45" r="4.73" fill="#ffffff" opacity="0.16"/>
  </g>
  <g opacity="0.755">
    <circle cx="1162.56" cy="1288.33" r="2.12" fill="#ffffff"/>
    <circle cx="1162.56" cy="1288.33" r="5.50" fill="#ffffff" opacity="0.16"/>
  </g>
  <g opacity="0.749">
    <circle cx="445.78" cy="1117.14" r="3.08" fill="#ffffff"/>
    <circle cx="445.78" cy="1117.14" r="8.00" fill="#ffffff" opacity="0.16"/>
  </g>
  <g opacity="0.735">
    <circle cx="322.63" cy="1607.16" r="2.20" fill="#ffffff"/>
    <circle cx="322.63" cy="1607.16" r="5.72" fill="#ffffff" opacity="0.16"/>
  </g>
  <g opacity="0.801">
    <circle cx="623.34" cy="450.99" r="2.94" fill="#ffffff"/>
    <circle cx="623.34" cy="450.99" r="7.65" fill="#ffffff" opacity="0.16"/>
  </g>
  <g opacity="0.830">
    <circle cx="1280.57" cy="561.32" r="3.76" fill="#ffffff"/>
    <circle cx="1280.57" cy="561.32" r="9.77" fill="#ffffff" opacity="0.16"/>
  </g>
  <g opacity="0.861">
    <circle cx="354.08" cy="1075.99" r="3.17" fill="#ffffff"/>
    <circle cx="354.08" cy="1075.99" r="8.25" fill="#ffffff" opacity="0.16"/>
  </g>
  <g opacity="0.916">
    <circle cx="63.27" cy="1152.95" r="2.79" fill="#ffffff"/>
    <circle cx="63.27" cy="1152.95" r="7.26" fill="#ffffff" opacity="0.16"/>
  </g>
  <g opacity="0.723">
    <circle cx="369.19" cy="1518.86" r="3.01" fill="#ffffff"/>
    <circle cx="369.19" cy="1518.86" r="7.84" fill="#ffffff" opacity="0.16"/>
  </g>
  <g opacity="0.852">
    <circle cx="821.24" cy="1180.49" r="3.16" fill="#ffffff"/>
    <circle cx="821.24" cy="1180.49" r="8.20" fill="#ffffff" opacity="0.16"/>
  </g>
  <g opacity="0.916">
    <circle cx="850.34" cy="1593.91" r="3.06" fill="#ffffff"/>
    <circle cx="850.34" cy="1593.91" r="7.95" fill="#ffffff" opacity="0.16"/>
  </g>
  <g opacity="0.803">
    <circle cx="833.78" cy="587.37" r="2.68" fill="#ffffff"/>
    <circle cx="833.78" cy="587.37" r="6.97" fill="#ffffff" opacity="0.16"/>
  </g>
  <g opacity="0.862">
    <circle cx="944.74" cy="171.37" r="2.39" fill="#ffffff"/>
    <circle cx="944.74" cy="171.37" r="6.21" fill="#ffffff" opacity="0.16"/>
  </g>
  <g opacity="0.940">
    <circle cx="226.58" cy="251.27" r="2.88" fill="#ffffff"/>
    <circle cx="226.58" cy="251.27" r="7.48" fill="#ffffff" opacity="0.16"/>
  </g>
  <g opacity="0.690">
    <circle cx="684.80" cy="1736.79" r="3.46" fill="#ffffff"/>
    <circle cx="684.80" cy="1736.79" r="9.00" fill="#ffffff" opacity="0.16"/>
  </g>
  <g opacity="0.861">
    <circle cx="1063.85" cy="916.13" r="3.41" fill="#ffffff"/>
    <circle cx="1063.85" cy="916.13" r="8.87" fill="#ffffff" opacity="0.16"/>
  </g>
  <g opacity="0.649">
    <circle cx="436.94" cy="218.97" r="3.73" fill="#ffffff"/>
    <circle cx="436.94" cy="218.97" r="9.69" fill="#ffffff" opacity="0.16"/>
  </g>
  <g opacity="0.943">
    <circle cx="1246.79" cy="1635.37" r="3.25" fill="#ffffff"/>
    <circle cx="1246.79" cy="1635.37" r="8.45" fill="#ffffff" opacity="0.16"/>
  </g>
  <g opacity="0.877">
    <circle cx="1247.78" cy="1529.75" r="2.53" fill="#ffffff"/>
    <circle cx="1247.78" cy="1529.75" r="6.58" fill="#ffffff" opacity="0.16"/>
  </g>
  <g opacity="0.835">
    <circle cx="17.96" cy="1020.17" r="2.71" fill="#ffffff"/>
    <circle cx="17.96" cy="1020.17" r="7.04" fill="#ffffff" opacity="0.16"/>
  </g>
  <g opacity="0.929">
    <circle cx="867.32" cy="1111.41" r="3.44" fill="#ffffff"/>
    <circle cx="867.32" cy="1111.41" r="8.96" fill="#ffffff" opacity="0.16"/>
  </g>
  <g opacity="0.909">
    <circle cx="139.77" cy="444.56" r="1.85" fill="#ffffff"/>
    <circle cx="139.77" cy="444.56" r="4.81" fill="#ffffff" opacity="0.16"/>
  </g>

  <g opacity="0.25" fill="#6d5ccf">
    <ellipse cx="180" cy="2456" rx="260" ry="120"/>
    <ellipse cx="420" cy="2486" rx="320" ry="135"/>
    <ellipse cx="760" cy="2471" rx="360" ry="142"/>
    <ellipse cx="1120" cy="2496" rx="290" ry="125"/>
  </g>
  <g opacity="0.22" fill="#8a7be6">
    <ellipse cx="320" cy="2546" rx="420" ry="120"/>
    <ellipse cx="900" cy="2566" rx="520" ry="135"/>
  </g>
</svg>
